<svg id="Error" xmlns="http://www.w3.org/2000/svg" viewBox="0 0 128 128"><title>error</title><path d="M82.581,10H45.419A26.814,26.814,0,0,0,22.2,23.408L3.614,55.592a26.817,26.817,0,0,0,0,26.816L22.2,114.592A26.814,26.814,0,0,0,45.419,128H82.581A26.814,26.814,0,0,0,105.8,114.592l18.582-32.184a26.817,26.817,0,0,0,0-26.816L105.8,23.408A26.814,26.814,0,0,0,82.581,10Z" style="fill:#560000"/><path d="M82.581,0H45.419A26.814,26.814,0,0,0,22.2,13.408L3.614,45.592a26.817,26.817,0,0,0,0,26.816L22.2,104.592A26.814,26.814,0,0,0,45.419,118H82.581A26.814,26.814,0,0,0,105.8,104.592l18.582-32.184a26.817,26.817,0,0,0,0-26.816L105.8,13.408A26.814,26.814,0,0,0,82.581,0Z" style="fill:#e00000"/><path d="M74.93,58.715,96.75,36.9a7.729,7.729,0,1,0-10.93-10.93L64,47.785,42.18,25.965A7.729,7.729,0,0,0,31.25,36.9l21.82,21.82L31.25,80.535a7.729,7.729,0,0,0,10.93,10.93L64,69.645l21.82,21.82a7.729,7.729,0,0,0,10.93-10.93Z" style="fill:#ddd"/></svg>