<svg xmlns="http://www.w3.org/2000/svg" viewBox="0 0 128 128"><title>info</title><g id="Info"><path d="M82.581,10H45.419A26.814,26.814,0,0,0,22.2,23.408L3.614,55.592a26.817,26.817,0,0,0,0,26.816L22.2,114.592A26.814,26.814,0,0,0,45.419,128H82.581A26.814,26.814,0,0,0,105.8,114.592l18.582-32.184a26.817,26.817,0,0,0,0-26.816L105.8,23.408A26.814,26.814,0,0,0,82.581,10Z" style="fill:#00007f"/><path d="M82.581,0H45.419A26.814,26.814,0,0,0,22.2,13.408L3.614,45.592a26.817,26.817,0,0,0,0,26.816L22.2,104.592A26.814,26.814,0,0,0,45.419,118H82.581A26.814,26.814,0,0,0,105.8,104.592l18.582-32.184a26.817,26.817,0,0,0,0-26.816L105.8,13.408A26.814,26.814,0,0,0,82.581,0Z" style="fill:blue"/><rect x="56.075" y="39.304" width="15.925" height="65.696" rx="7.962" transform="translate(128.075 144.304) rotate(-180)" style="fill:#ddd"/><circle cx="63.918" cy="20.304" r="8" style="fill:#ddd"/></g></svg>