<svg xmlns="http://www.w3.org/2000/svg" viewBox="0 0 128 128"><title>warn</title><g id="Warn"><path d="M82.581,10H45.419A26.814,26.814,0,0,0,22.2,23.408L3.614,55.592a26.817,26.817,0,0,0,0,26.816L22.2,114.592A26.814,26.814,0,0,0,45.419,128H82.581A26.814,26.814,0,0,0,105.8,114.592l18.582-32.184a26.817,26.817,0,0,0,0-26.816L105.8,23.408A26.814,26.814,0,0,0,82.581,10Z" style="fill:#848000"/><path d="M82.581,0H45.419A26.814,26.814,0,0,0,22.2,13.408L3.614,45.592a26.817,26.817,0,0,0,0,26.816L22.2,104.592A26.814,26.814,0,0,0,45.419,118H82.581A26.814,26.814,0,0,0,105.8,104.592l18.582-32.184a26.817,26.817,0,0,0,0-26.816L105.8,13.408A26.814,26.814,0,0,0,82.581,0Z" style="fill:#eae400"/><rect x="55.918" y="12.304" width="15.925" height="65.696" rx="7.962" style="fill:#ddd"/><circle cx="64" cy="97" r="8" style="fill:#ddd"/></g></svg>